FILE "Tomb Raider - Unfinished Business (USA) (v1.0) (RetroRaiderJohn).bin" BINARY
  TRACK 01 MODE1/2352
    INDEX 01 00:00:00
  TRACK 02 AUDIO
    PREGAP 00:02:00
    INDEX 01 01:54:00
  TRACK 03 AUDIO
    INDEX 01 05:10:43
  TRACK 04 AUDIO
    INDEX 01 08:19:26
  TRACK 05 AUDIO
    INDEX 01 11:26:73
  TRACK 06 AUDIO
    INDEX 01 11:28:73
  TRACK 07 AUDIO
    INDEX 01 11:30:73
  TRACK 08 AUDIO
    INDEX 01 11:32:73
  TRACK 09 AUDIO
    INDEX 01 11:34:73
  TRACK 10 AUDIO
    INDEX 01 11:36:73
  TRACK 11 AUDIO
    INDEX 01 11:38:73
  TRACK 12 AUDIO
    INDEX 01 11:40:73
  TRACK 13 AUDIO
    INDEX 01 11:42:73
  TRACK 14 AUDIO
    INDEX 01 11:50:01
  TRACK 15 AUDIO
    INDEX 01 11:52:01
  TRACK 16 AUDIO
    INDEX 01 11:54:01
  TRACK 17 AUDIO
    INDEX 01 11:56:01
  TRACK 18 AUDIO
    INDEX 01 11:58:01
  TRACK 19 AUDIO
    INDEX 01 12:00:01
  TRACK 20 AUDIO
    INDEX 01 12:02:01
  TRACK 21 AUDIO
    INDEX 01 12:04:01
  TRACK 22 AUDIO
    INDEX 01 12:06:01
  TRACK 23 AUDIO
    INDEX 01 12:08:01
  TRACK 24 AUDIO
    INDEX 01 12:10:01
  TRACK 25 AUDIO
    INDEX 01 12:12:01
  TRACK 26 AUDIO
    INDEX 01 12:14:01
  TRACK 27 AUDIO
    INDEX 01 12:21:02
  TRACK 28 AUDIO
    INDEX 01 12:28:03
  TRACK 29 AUDIO
    INDEX 01 12:35:03
  TRACK 30 AUDIO
    INDEX 01 12:42:04
  TRACK 31 AUDIO
    INDEX 01 12:50:02
  TRACK 32 AUDIO
    INDEX 01 12:57:03
  TRACK 33 AUDIO
    INDEX 01 13:06:41
  TRACK 34 AUDIO
    INDEX 01 13:16:08
  TRACK 35 AUDIO
    INDEX 01 13:23:55
  TRACK 36 AUDIO
    INDEX 01 13:30:69
  TRACK 37 AUDIO
    INDEX 01 13:47:65
  TRACK 38 AUDIO
    INDEX 01 13:54:66
  TRACK 39 AUDIO
    INDEX 01 14:01:67
  TRACK 40 AUDIO
    INDEX 01 14:17:73
  TRACK 41 AUDIO
    INDEX 01 14:28:38
  TRACK 42 AUDIO
    INDEX 01 14:35:39
  TRACK 43 AUDIO
    INDEX 01 14:42:39
  TRACK 44 AUDIO
    INDEX 01 14:51:52
  TRACK 45 AUDIO
    INDEX 01 15:00:01
  TRACK 46 AUDIO
    INDEX 01 15:09:67
  TRACK 47 AUDIO
    INDEX 01 15:16:68
  TRACK 48 AUDIO
    INDEX 01 15:23:69
  TRACK 49 AUDIO
    INDEX 01 15:30:70
  TRACK 50 AUDIO
    INDEX 01 15:46:66
